<?xml version="1.0" encoding="utf-8"?>
<!-- Generator: Adobe Illustrator 22.1.0, SVG Export Plug-In . SVG Version: 6.00 Build 0)  -->
<svg version="1.1" id="Capa_1" xmlns="http://www.w3.org/2000/svg" xmlns:xlink="http://www.w3.org/1999/xlink" x="0px" y="0px"
	 viewBox="0 0 40.5 40.4" style="enable-background:new 0 0 40.5 40.4;" xml:space="preserve">
<style type="text/css">
	.st0{fill:#FFFFFF;}
</style>
<path class="st0" d="M30.4,37.7c9.7-5.6,13-17.9,7.4-27.6s-17.9-13-27.6-7.4s-13,17.9-7.4,27.6S20.7,43.3,30.4,37.7L30.4,37.7z
	 M6.3,28.3c-4.5-7.7-1.8-17.6,5.9-22.1s17.6-1.8,22.1,5.9s1.8,17.6-5.9,22.1C20.7,38.7,10.8,36,6.3,28.3L6.3,28.3z"/>
<path class="st0" d="M28.8,13.8c0-1.1-0.9-2-2-2h-13c-1.1,0-2,0.9-2,2s0.9,2,2,2h13C27.9,15.8,28.8,14.9,28.8,13.8L28.8,13.8z"/>
<path class="st0" d="M28.8,20.2c0-1.1-0.9-2-2-2h-13c-1.1,0-2,0.9-2,2s0.9,2,2,2h13C27.9,22.2,28.8,21.3,28.8,20.2L28.8,20.2z"/>
<path class="st0" d="M28.8,26.6c0-1.1-0.9-2-2-2h-13c-1.1,0-2,0.9-2,2s0.9,2,2,2h13C27.9,28.6,28.8,27.7,28.8,26.6L28.8,26.6z"/>
</svg>
