<?xml version="1.0" encoding="utf-8"?>
<!-- Generator: Adobe Illustrator 22.0.1, SVG Export Plug-In . SVG Version: 6.00 Build 0)  -->
<svg version="1.1" id="Capa_1" xmlns="http://www.w3.org/2000/svg" xmlns:xlink="http://www.w3.org/1999/xlink" x="0px" y="0px"
	 viewBox="0 0 40.5 40.4" style="enable-background:new 0 0 40.5 40.4;" xml:space="preserve">
<path d="M30.4,37.7c9.7-5.6,13-17.9,7.4-27.6c-5.6-9.7-17.9-13-27.6-7.4c-9.7,5.6-13,17.9-7.4,27.6C8.4,40,20.7,43.3,30.4,37.7
	L30.4,37.7z M6.3,28.3c-4.5-7.7-1.8-17.6,5.9-22.1c7.7-4.5,17.6-1.8,22.1,5.9c4.5,7.7,1.8,17.6-5.9,22.1C20.7,38.7,10.8,36,6.3,28.3
	L6.3,28.3z M26.4,24.2"/>
<path d="M28.8,13.8c0-1.1-0.9-2-2-2h-13c-1.1,0-2,0.9-2,2c0,1.1,0.9,2,2,2h13C27.9,15.8,28.8,14.9,28.8,13.8L28.8,13.8z"/>
<path d="M28.8,20.2c0-1.1-0.9-2-2-2h-13c-1.1,0-2,0.9-2,2c0,1.1,0.9,2,2,2h13C27.9,22.2,28.8,21.3,28.8,20.2L28.8,20.2z"/>
<path d="M28.8,26.6c0-1.1-0.9-2-2-2h-13c-1.1,0-2,0.9-2,2c0,1.1,0.9,2,2,2h13C27.9,28.6,28.8,27.7,28.8,26.6L28.8,26.6z"/>
</svg>
