<?xml version="1.0" encoding="utf-8"?>
<!-- Generator: Adobe Illustrator 22.0.1, SVG Export Plug-In . SVG Version: 6.00 Build 0)  -->
<svg version="1.1" id="Capa_1" xmlns="http://www.w3.org/2000/svg" xmlns:xlink="http://www.w3.org/1999/xlink" x="0px" y="0px"
	 viewBox="0 0 40.5 40.4" xml:space="preserve">
<path d="M39.8,4.3c1-1,1-2.6,0-3.6c-1-1-2.6-1-3.6,0L0.8,36.1c-1,1-1,2.6,0,3.6c0.5,0.5,1.1,0.7,1.8,0.7c0.6,0,1.3-0.2,1.8-0.7
	L39.8,4.3z M23.9,20.2"/>
<path d="M36.2,39.7c1,1,2.6,1,3.6,0c1-1,1-2.6,0-3.6L4.4,0.7c-1-1-2.6-1-3.6,0C0.3,1.2,0.1,1.9,0.1,2.5c0,0.6,0.2,1.3,0.7,1.8
	L36.2,39.7z M20.3,23.8"/>
</svg>
