<?xml version="1.0" encoding="utf-8"?>
<!-- Generator: Adobe Illustrator 22.1.0, SVG Export Plug-In . SVG Version: 6.00 Build 0)  -->
<svg version="1.1" id="Capa_1" xmlns="http://www.w3.org/2000/svg" xmlns:xlink="http://www.w3.org/1999/xlink" x="0px" y="0px"
	 viewBox="0 0 40.5 40.4" style="enable-background:new 0 0 40.5 40.4;" xml:space="preserve">
<style type="text/css">
	.st0{fill:#FFFFFF;}
</style>
<path class="st0" d="M30.4,2.8c-9.6-5.6-22-2.3-27.6,7.4c-5.6,9.6-2.3,22,7.4,27.5c9.6,5.6,22,2.3,27.5-7.4
	C43.3,20.7,40,8.3,30.4,2.8L30.4,2.8z M34.3,28.3c-4.5,7.7-14.3,10.4-22,5.9s-10.4-14.3-5.9-22s14.3-10.4,22-5.9
	C36.1,10.7,38.7,20.6,34.3,28.3L34.3,28.3z"/>
<path class="st0" d="M24.6,16.3l-4.3,4.3L16,16.3c-0.8-0.8-2.1-0.8-2.9,0c-0.8,0.8-0.8,2.1,0,2.9l5.7,5.7c0.8,0.8,2.1,0.8,2.9,0
	l5.7-5.7c0.8-0.8,0.8-2.1,0-2.9C26.6,15.5,25.4,15.5,24.6,16.3L24.6,16.3z"/>
</svg>
