<?xml version="1.0" encoding="utf-8"?>
<!-- Generator: Adobe Illustrator 22.1.0, SVG Export Plug-In . SVG Version: 6.00 Build 0)  -->
<svg version="1.1" id="Capa_1" xmlns="http://www.w3.org/2000/svg" xmlns:xlink="http://www.w3.org/1999/xlink" x="0px" y="0px"
	 viewBox="0 0 45.5 41.7" style="enable-background:new 0 0 45.5 41.7;" xml:space="preserve">
<style type="text/css">
	.st0{fill:#FFFFFF;}
</style>
<g>
	<path class="st0" d="M24.7,0.4C17.4,0.4,10.6,4.3,7,10.6c-0.3,0.5-0.3,1-0.2,1.5c0.1,0.5,0.5,0.9,0.9,1.2c1,0.6,2.2,0.2,2.7-0.7
		c2.9-5.1,8.4-8.2,14.3-8.2c9.1,0,16.5,7.4,16.5,16.5s-7.4,16.5-16.5,16.5c-5.9,0-11.3-3.2-14.3-8.2c-0.6-1-1.8-1.3-2.7-0.7
		c-1,0.6-1.3,1.8-0.7,2.7c3.7,6.3,10.4,10.2,17.7,10.2l0,0c5.5,0,10.6-2.1,14.5-6s6-9,6-14.5C45.1,9.6,36,0.4,24.7,0.4z"/>
</g>
<path class="st0" d="M32,19.4l-5.6-5.6c-0.8-0.8-2-0.8-2.8,0s-0.8,2,0,2.8l2.2,2.2h-3.1l0,0H2.4c-1.1,0-2,0.9-2,2s0.9,2,2,2h20.3
	l0,0h3.1L23.6,25c-0.8,0.8-0.8,2,0,2.8s2,0.8,2.8,0l5.6-5.6C32.7,21.5,32.7,20.2,32,19.4z"/>
</svg>
