<?xml version="1.0" encoding="utf-8"?>
<!-- Generator: Adobe Illustrator 22.1.0, SVG Export Plug-In . SVG Version: 6.00 Build 0)  -->
<svg version="1.1" id="Capa_1" xmlns="http://www.w3.org/2000/svg" xmlns:xlink="http://www.w3.org/1999/xlink" x="0px" y="0px"
	 viewBox="0 0 63.4 40.4" style="enable-background:new 0 0 63.4 40.4;" xml:space="preserve">
<style type="text/css">
	.st0{fill:#FFFFFF;}
</style>
<g>
	<path class="st0" d="M31.7,40.4c-17.2,0-30.7-18.2-31.3-19c-0.5-0.7-0.5-1.7,0-2.5C1,18.2,14.5,0,31.7,0S62.4,18.2,63,19
		c0.5,0.7,0.5,1.7,0,2.5C62.4,22.2,48.9,40.4,31.7,40.4z M4.8,20.2c3.3,3.9,14.2,16,26.9,16s23.7-12.1,26.9-16
		c-3.3-3.9-14.2-16-26.9-16C19,4.2,8,16.2,4.8,20.2z"/>
	<path class="st0" d="M31.7,32.7c-6.9,0-12.5-5.6-12.5-12.5S24.8,7.7,31.7,7.7s12.5,5.6,12.5,12.5S38.6,32.7,31.7,32.7z M31.7,11.8
		c-4.6,0-8.4,3.7-8.4,8.4s3.7,8.4,8.4,8.4s8.4-3.7,8.4-8.4S36.3,11.8,31.7,11.8z"/>
</g>
</svg>
