<?xml version="1.0" encoding="utf-8"?>
<!-- Generator: Adobe Illustrator 22.0.1, SVG Export Plug-In . SVG Version: 6.00 Build 0)  -->
<svg version="1.1" id="Capa_1" xmlns="http://www.w3.org/2000/svg" xmlns:xlink="http://www.w3.org/1999/xlink" x="0px" y="0px"
	 viewBox="0 0 40.5 40.4" style="enable-background:new 0 0 40.5 40.4;" xml:space="preserve">
<path d="M37.7,10.1c-5.6-9.7-17.9-13-27.6-7.4c-9.6,5.6-13,17.9-7.4,27.6c5.6,9.6,17.9,13,27.6,7.4C40,32.1,43.3,19.8,37.7,10.1z
	 M28.1,25.3c0.7,0.7,0.7,1.9,0,2.6c-0.3,0.3-0.8,0.5-1.3,0.5c-0.5,0-0.9-0.2-1.3-0.5l-5.3-5.3L15,27.9c-0.7,0.7-1.9,0.7-2.6,0
	c-0.7-0.7-0.7-1.9,0-2.6l5.3-5.3l-5.3-5.3c-0.7-0.7-0.7-1.9,0-2.6c0.7-0.7,1.9-0.7,2.6,0l5.3,5.3l5.3-5.3c0.7-0.7,1.9-0.7,2.6,0
	c0.7,0.7,0.7,1.9,0,2.6L22.8,20L28.1,25.3z"/>
</svg>
