<?xml version="1.0" encoding="utf-8"?>
<!-- Generator: Adobe Illustrator 22.1.0, SVG Export Plug-In . SVG Version: 6.00 Build 0)  -->
<svg version="1.1" id="Capa_1" xmlns="http://www.w3.org/2000/svg" xmlns:xlink="http://www.w3.org/1999/xlink" x="0px" y="0px"
	 viewBox="0 0 40.5 40.4" style="enable-background:new 0 0 40.5 40.4;" xml:space="preserve">
<path d="M37.6,10.1c-5.6-9.7-17.9-13-27.6-7.4c-9.7,5.6-13,17.9-7.4,27.6c5.6,9.7,17.9,13,27.6,7.4C39.9,32.1,43.2,19.8,37.6,10.1z
	 M18.4,23.6l-4.1,4.1h1.8c0.6,0,1.1,0.5,1.1,1.1S16.7,30,16.1,30h-4.5c-0.6,0-1.1-0.5-1.1-1.1l0-4.5c0-0.6,0.5-1.1,1.1-1.1
	s1.1,0.5,1.1,1.1l0,1.8l4.1-4.1c0.4-0.4,1.2-0.4,1.6,0C18.8,22.5,18.8,23.2,18.4,23.6z M18.4,18.3c-0.2,0.2-0.5,0.3-0.8,0.3
	c-0.3,0-0.6-0.1-0.8-0.3l-4.1-4.1V16c0,0.6-0.5,1.1-1.1,1.1s-1.1-0.5-1.1-1.1v-4.5c0-0.6,0.5-1.1,1.1-1.1l4.5,0
	c0.6,0,1.1,0.5,1.1,1.1s-0.5,1.1-1.1,1.1l-1.8,0l4.1,4.1C18.8,17.2,18.8,17.9,18.4,18.3z M29.9,28.9c0,0.6-0.5,1.1-1.1,1.1h-4.5
	c-0.6,0-1.1-0.5-1.1-1.1s0.5-1.1,1.1-1.1H26l-4.1-4.1c-0.2-0.2-0.3-0.5-0.3-0.8c0-0.3,0.1-0.6,0.3-0.8c0.4-0.4,1.2-0.4,1.6,0
	l4.1,4.1v-1.8c0-0.6,0.5-1.1,1.1-1.1s1.1,0.5,1.1,1.1V28.9z M29.9,16c0,0.6-0.5,1.1-1.1,1.1s-1.1-0.5-1.1-1.1v-1.8l-4.1,4.1
	c-0.2,0.2-0.5,0.3-0.8,0.3c-0.3,0-0.6-0.1-0.8-0.3c-0.2-0.2-0.3-0.5-0.3-0.8s0.1-0.6,0.3-0.8l4.1-4.1h-1.8c-0.6,0-1.1-0.5-1.1-1.1
	s0.5-1.1,1.1-1.1h4.5c0.6,0,1.1,0.5,1.1,1.1V16z"/>
</svg>
