<?xml version="1.0" encoding="utf-8"?>
<!-- Generator: Adobe Illustrator 22.1.0, SVG Export Plug-In . SVG Version: 6.00 Build 0)  -->
<svg version="1.1" id="Capa_1" xmlns="http://www.w3.org/2000/svg" xmlns:xlink="http://www.w3.org/1999/xlink" x="0px" y="0px"
	 viewBox="0 0 40.5 40.4" style="enable-background:new 0 0 40.5 40.4;" xml:space="preserve">
<style type="text/css">
	.st0{fill:#FFFFFF;}
</style>
<path class="st0" d="M37.7,10.1c-5.6-9.7-17.9-13-27.6-7.4s-13,17.9-7.4,27.6s17.9,13,27.6,7.4S43.3,19.8,37.7,10.1L37.7,10.1z
	 M28.3,34.2c-7.7,4.5-17.6,1.8-22.1-5.9S4.4,10.7,12.1,6.2s17.6-1.8,22.1,5.9C38.7,19.9,36,29.7,28.3,34.2L28.3,34.2z"/>
<path class="st0" d="M15,13.2h1.3c0.7,0,1.2-0.5,1.2-1.2s-0.5-1.2-1.2-1.2H12c-0.7,0-1.2,0.5-1.2,1.2v4.3c0,0.7,0.5,1.2,1.2,1.2
	s1.2-0.5,1.2-1.2V15l3.6,3.6c0.2,0.2,0.5,0.4,0.9,0.4s0.6-0.1,0.9-0.4S19,18,19,17.7s-0.1-0.6-0.4-0.9L15,13.2z"/>
<path class="st0" d="M16.9,21.9l-3.6,3.6v-1.4c0-0.7-0.5-1.2-1.2-1.2s-1.2,0.5-1.2,1.2v4.3c0,0.7,0.5,1.2,1.2,1.2h4.3
	c0.7,0,1.2-0.5,1.2-1.2s-0.5-1.2-1.2-1.2H15l3.6-3.6c0.2-0.2,0.4-0.5,0.4-0.9c0-0.3-0.1-0.6-0.4-0.9C18.2,21.4,17.4,21.4,16.9,21.9z
	"/>
<path class="st0" d="M28.3,22.9c-0.7,0-1.2,0.5-1.2,1.2v1.3l-3.6-3.6c-0.5-0.5-1.3-0.5-1.7,0c-0.2,0.2-0.4,0.5-0.4,0.9
	s0.1,0.6,0.4,0.9l3.6,3.6h-1.3c-0.7,0-1.2,0.5-1.2,1.2s0.5,1.2,1.2,1.2h4.3c0.7,0,1.2-0.5,1.2-1.2v-4.3C29.5,23.5,29,22.9,28.3,22.9
	z"/>
<path class="st0" d="M28.3,10.8H24c-0.7,0-1.2,0.5-1.2,1.2s0.5,1.2,1.2,1.2h1.3l-3.6,3.6c-0.5,0.5-0.5,1.2,0,1.7
	c0.2,0.2,0.5,0.4,0.9,0.4c0.3,0,0.6-0.1,0.9-0.4l3.6-3.6v1.3c0,0.7,0.5,1.2,1.2,1.2s1.2-0.5,1.2-1.2V12C29.5,11.3,29,10.8,28.3,10.8
	z"/>
</svg>
