<?xml version="1.0" encoding="utf-8"?>
<!-- Generator: Adobe Illustrator 22.1.0, SVG Export Plug-In . SVG Version: 6.00 Build 0)  -->
<svg version="1.1" id="Capa_1" xmlns="http://www.w3.org/2000/svg" xmlns:xlink="http://www.w3.org/1999/xlink" x="0px" y="0px"
	 viewBox="0 0 40.5 40.4" style="enable-background:new 0 0 40.5 40.4;" xml:space="preserve">
<style type="text/css">
	.st0{fill:#FFFFFF;}
</style>
<path class="st0" d="M37.7,10.1c-5.6-9.7-17.9-13-27.6-7.4s-13,17.9-7.4,27.6s17.9,13,27.6,7.4C39.9,32.1,43.2,19.8,37.7,10.1z
	 M28.3,34.2c-7.7,4.5-17.6,1.8-22.1-5.9S4.4,10.7,12.1,6.2s17.6-1.8,22.1,5.9C38.6,19.9,36,29.7,28.3,34.2z"/>
<path class="st0" d="M23.2,27.4h-0.1v-10c0-1.2-0.9-2.1-2.1-2.1h-0.1h-3.1c-1,0-1.8,0.8-1.8,1.8s0.8,1.8,1.8,1.8h1.1v8.5h-1.8
	c-1,0-1.8,0.8-1.8,1.8c0,0.9,0.7,1.7,1.7,1.8l0,0h6.3c1,0,1.8-0.8,1.8-1.8C25.1,28.2,24.2,27.4,23.2,27.4z"/>
<path class="st0" d="M20.8,14.1c1.3,0,2.3-1,2.3-2.3s-1-2.3-2.3-2.3s-2.3,1-2.3,2.3C18.4,13,19.5,14.1,20.8,14.1z"/>
</svg>
