<?xml version="1.0" encoding="utf-8"?>
<!-- Generator: Adobe Illustrator 22.0.1, SVG Export Plug-In . SVG Version: 6.00 Build 0)  -->
<svg version="1.1" id="Capa_1" xmlns="http://www.w3.org/2000/svg" xmlns:xlink="http://www.w3.org/1999/xlink" x="0px" y="0px"
	 viewBox="0 0 40.5 40.4" xml:space="preserve">
		<path d="M37.7,10.1c-5.6-9.7-17.9-13-27.6-7.4c-9.7,5.6-13,17.9-7.4,27.6c5.6,9.7,17.9,13,27.6,7.4
				C39.9,32.1,43.2,19.8,37.7,10.1z M28.3,34.2c-7.7,4.5-17.6,1.8-22.1-5.9c-4.5-7.7-1.8-17.6,5.9-22.1c7.7-4.5,17.6-1.8,22.1,5.9
				C38.6,19.9,36,29.7,28.3,34.2z"/>
	  <path d="M23.2,27.4h-0.1v-10c0-1.2-0.9-2.1-2.1-2.1c0,0-0.1,0-0.1,0h-3.1c-1,0-1.8,0.8-1.8,1.8c0,1,0.8,1.8,1.8,1.8h1.1v8.5h-1.8
		c-1,0-1.8,0.8-1.8,1.8c0,0.9,0.7,1.7,1.7,1.8v0h6.3c1,0,1.8-0.8,1.8-1.8C25.1,28.2,24.2,27.4,23.2,27.4z"/>
		<path d="M20.8,14.1c1.3,0,2.3-1,2.3-2.3c0-1.3-1-2.3-2.3-2.3c-1.3,0-2.3,1-2.3,2.3C18.4,13,19.5,14.1,20.8,14.1z"/>
</svg>
