<?xml version="1.0" encoding="utf-8"?>
<!-- Generator: Adobe Illustrator 22.1.0, SVG Export Plug-In . SVG Version: 6.00 Build 0)  -->
<svg version="1.1" id="Capa_1" xmlns="http://www.w3.org/2000/svg" xmlns:xlink="http://www.w3.org/1999/xlink" x="0px" y="0px"
	 viewBox="0 0 40.5 40.4" style="enable-background:new 0 0 40.5 40.4;" xml:space="preserve">
<style type="text/css">
	.st0{fill:#FFFFFF;}
</style>
<path class="st0" d="M37.7,10.1c-5.6-9.7-17.9-13-27.6-7.4s-13,17.9-7.4,27.6s17.9,13,27.6,7.4C39.9,32.1,43.2,19.7,37.7,10.1z
	 M20.7,9.4c1.3,0,2.3,1,2.3,2.3S22,14,20.7,14s-2.3-1-2.3-2.3C18.4,10.4,19.5,9.4,20.7,9.4z M23.3,31H17l0,0
	c-0.9-0.1-1.7-0.9-1.7-1.8c0-1,0.8-1.8,1.8-1.8h1.8v-8.5h-1.1c-1,0-1.8-0.8-1.8-1.8s0.8-1.8,1.8-1.8h3.1c0,0,0,0,0.1,0
	c1.2,0,2.1,0.9,2.1,2.1v10h0.1c1,0,1.8,0.8,1.8,1.8C25.1,30.2,24.3,31,23.3,31z"/>
</svg>
