<?xml version="1.0" encoding="utf-8"?>
<!-- Generator: Adobe Illustrator 22.1.0, SVG Export Plug-In . SVG Version: 6.00 Build 0)  -->
<svg version="1.1" id="Capa_1" xmlns="http://www.w3.org/2000/svg" xmlns:xlink="http://www.w3.org/1999/xlink" x="0px" y="0px"
	 viewBox="0 0 40.5 40.4" style="enable-background:new 0 0 40.5 40.4;" xml:space="preserve">
<style type="text/css">
	.st0{fill:#FFFFFF;}
</style>
<path class="st0" d="M37.7,30.4c5.6-9.6,2.3-22-7.4-27.6c-9.6-5.6-22-2.3-27.5,7.4c-5.6,9.6-2.3,22,7.4,27.5
	C19.8,43.3,32.2,40,37.7,30.4L37.7,30.4z M12.2,34.3C4.5,29.8,1.8,20,6.3,12.3s14.3-10.4,22-5.9s10.4,14.3,5.9,22
	C29.8,36.1,19.9,38.7,12.2,34.3L12.2,34.3z"/>
<path class="st0" d="M24.2,24.6l-4.3-4.3l4.3-4.3c0.8-0.8,0.8-2.1,0-2.9s-2.1-0.8-2.9,0l-5.7,5.7c-0.8,0.8-0.8,2.1,0,2.9l5.7,5.7
	c0.8,0.8,2.1,0.8,2.9,0C25,26.6,25,25.4,24.2,24.6L24.2,24.6z"/>
</svg>
