<?xml version="1.0" encoding="utf-8"?>
<!-- Generator: Adobe Illustrator 22.1.0, SVG Export Plug-In . SVG Version: 6.00 Build 0)  -->
<svg version="1.1" id="Capa_1" xmlns="http://www.w3.org/2000/svg" xmlns:xlink="http://www.w3.org/1999/xlink" x="0px" y="0px"
	 viewBox="0 0 40.3 40.3" style="enable-background:new 0 0 40.3 40.3;" xml:space="preserve">
<path d="M37.6,30.3c5.6-9.6,2.3-22-7.4-27.6c-9.6-5.6-22-2.3-27.5,7.4c-5.6,9.6-2.3,22,7.4,27.5C19.7,43.3,32,40,37.6,30.3z
	 M20.6,27.4l-5.7-5.7c-0.8-0.8-0.8-2.1,0-2.9l5.7-5.7c0.8-0.8,2.1-0.8,2.9,0s0.8,2.1,0,2.9l-4.3,4.3l4.3,4.3c0.8,0.8,0.8,2.1,0,2.9
	C22.7,28.1,21.4,28.1,20.6,27.4z"/>
</svg>
