<?xml version="1.0" encoding="utf-8"?>
<!-- Generator: Adobe Illustrator 22.1.0, SVG Export Plug-In . SVG Version: 6.00 Build 0)  -->
<svg version="1.1" id="Capa_1" xmlns="http://www.w3.org/2000/svg" xmlns:xlink="http://www.w3.org/1999/xlink" x="0px" y="0px"
	 viewBox="0 0 62.9 62.9" style="enable-background:new 0 0 62.9 62.9;" xml:space="preserve">
<style type="text/css">
	.st0{fill:#010202;}
</style>
<g>
	<path class="st0" d="M27.2,33.2c0,2,1.6,2.5,3.3,2.5c4.2,0,4.4-3.3,4.4-4.5v-2C34,30,32.1,30,30.4,30.3
		C28.8,30.7,27.2,31.2,27.2,33.2z"/>
	<path class="st0" d="M0,0v62.9h62.9V0H0z M31.4,22.2c-2.1,0-3.4,0.8-3.6,3h-5.4c0.3-5.1,4.8-6.6,9.2-6.6c3.9,0,8.6,0.9,8.6,5.6
		v10.2c0,1.8,0.2,3.6,0.7,4.4h-5.5c-0.2-0.6-0.3-1.3-0.4-1.9c-1.7,1.8-4.2,2.4-6.6,2.4c-3.7,0-6.7-1.9-6.7-5.9c0-4.5,3.3-5.5,6.7-6
		c3.3-0.5,6.4-0.4,6.4-2.6C34.9,22.6,33.3,22.2,31.4,22.2z M49.9,50.6l-35.9,0c-1.6,0-2.9-1.3-2.9-2.9c0-1.6,1.3-3,3-3l35.9,0
		c0.8,0,1.5,0.3,2.1,0.9c0.6,0.6,0.9,1.3,0.9,2.1C52.9,49.3,51.5,50.6,49.9,50.6z"/>
</g>
</svg>
