<?xml version="1.0" encoding="utf-8"?>
<!-- Generator: Adobe Illustrator 22.1.0, SVG Export Plug-In . SVG Version: 6.00 Build 0)  -->
<svg version="1.1" id="Capa_1" xmlns="http://www.w3.org/2000/svg" xmlns:xlink="http://www.w3.org/1999/xlink" x="0px" y="0px"
	 viewBox="0 0 40.5 40.4" style="enable-background:new 0 0 40.5 40.4;" xml:space="preserve">
<style type="text/css">
	.st0{fill:#FFFFFF;}
</style>
<path class="st0" d="M37.7,10.1c-5.6-9.7-17.9-13-27.6-7.4s-13,17.9-7.4,27.6s17.9,13,27.6,7.4S43.3,19.8,37.7,10.1L37.7,10.1z
	 M28.3,34.2c-7.7,4.5-17.6,1.8-22.1-5.9S4.4,10.7,12.1,6.2s17.6-1.8,22.1,5.9C38.7,19.9,36.1,29.7,28.3,34.2L28.3,34.2z"/>
<path class="st0" d="M17.8,12.2c-0.7,0-1.2,0.5-1.2,1.2v1.3L13,11.1c-0.5-0.5-1.3-0.5-1.7,0c-0.2,0.2-0.4,0.5-0.4,0.9
	c0,0.3,0.1,0.6,0.4,0.9l3.6,3.6h-1.3c-0.7,0-1.2,0.5-1.2,1.2s0.5,1.2,1.2,1.2h4.3c0.7,0,1.2-0.5,1.2-1.2v-4.3
	C19,12.8,18.5,12.2,17.8,12.2z"/>
<path class="st0" d="M17.8,21.5h-4.3c-0.7,0-1.2,0.5-1.2,1.2s0.5,1.2,1.2,1.2h1.3l-3.6,3.6c-0.2,0.2-0.4,0.5-0.4,0.9
	c0,0.3,0.1,0.6,0.4,0.9c0.2,0.2,0.5,0.4,0.9,0.4s0.6-0.1,0.9-0.4l3.6-3.6V27c0,0.7,0.5,1.2,1.2,1.2S19,27.7,19,27v-4.3
	C19,22,18.5,21.5,17.8,21.5z"/>
<path class="st0" d="M25.6,23.9H27c0.7,0,1.2-0.5,1.2-1.2s-0.5-1.2-1.2-1.2h-4.3c-0.7,0-1.2,0.5-1.2,1.2V27c0,0.7,0.5,1.2,1.2,1.2
	s1.2-0.5,1.2-1.2v-1.3l3.6,3.6c0.2,0.2,0.5,0.4,0.9,0.4c0.3,0,0.6-0.1,0.9-0.4c0.2-0.2,0.4-0.5,0.4-0.9s-0.1-0.6-0.4-0.9L25.6,23.9z
	"/>
<path class="st0" d="M22.7,18.9H27c0.7,0,1.2-0.5,1.2-1.2s-0.5-1.2-1.2-1.2h-1.3l3.6-3.6c0.2-0.2,0.4-0.5,0.4-0.9
	c0-0.3-0.1-0.6-0.4-0.9c-0.5-0.5-1.3-0.5-1.7,0L24,14.7v-1.3c0-0.7-0.5-1.2-1.2-1.2s-1.2,0.5-1.2,1.2v4.3
	C21.5,18.4,22,18.9,22.7,18.9z"/>
</svg>
