<?xml version="1.0" encoding="utf-8"?>
<!-- Generator: Adobe Illustrator 22.1.0, SVG Export Plug-In . SVG Version: 6.00 Build 0)  -->
<svg version="1.1" id="Capa_1" xmlns="http://www.w3.org/2000/svg" xmlns:xlink="http://www.w3.org/1999/xlink" x="0px" y="0px"
	 viewBox="0 0 40.5 40.4" xml:space="preserve">
<path d="M37.7,10.1c-5.6-9.7-17.9-13-27.6-7.4c-9.7,5.6-13,17.9-7.4,27.6c5.6,9.7,17.9,13,27.6,7.4C40,32.1,43.3,19.8,37.7,10.1
	L37.7,10.1z M28.3,34.2c-7.7,4.5-17.6,1.8-22.1-5.9c-4.5-7.7-1.8-17.6,5.9-22.1c7.7-4.5,17.6-1.8,22.1,5.9
	C38.7,19.9,36.1,29.7,28.3,34.2L28.3,34.2z M27.5,19.4"/>
<path d="M17.8,12.2c-0.7,0-1.2,0.5-1.2,1.2v1.3L13,11.1c-0.5-0.5-1.3-0.5-1.7,0c-0.2,0.2-0.4,0.5-0.4,0.9c0,0.3,0.1,0.6,0.4,0.9
	l3.6,3.6l-1.3,0c-0.7,0-1.2,0.5-1.2,1.2s0.5,1.2,1.2,1.2l4.3,0c0.7,0,1.2-0.5,1.2-1.2v-4.3C19,12.8,18.5,12.2,17.8,12.2z"/>
<path d="M17.8,21.5h-4.3c-0.7,0-1.2,0.5-1.2,1.2s0.5,1.2,1.2,1.2h1.3l-3.6,3.6c-0.2,0.2-0.4,0.5-0.4,0.9c0,0.3,0.1,0.6,0.4,0.9
	c0.2,0.2,0.5,0.4,0.9,0.4s0.6-0.1,0.9-0.4l3.6-3.6V27c0,0.7,0.5,1.2,1.2,1.2S19,27.7,19,27l0-4.3C19,22,18.5,21.5,17.8,21.5z"/>
<path d="M25.6,23.9H27c0.7,0,1.2-0.5,1.2-1.2s-0.5-1.2-1.2-1.2l-4.3,0c-0.7,0-1.2,0.5-1.2,1.2V27c0,0.7,0.5,1.2,1.2,1.2
	s1.2-0.5,1.2-1.2v-1.3l3.6,3.6c0.2,0.2,0.5,0.4,0.9,0.4c0.3,0,0.6-0.1,0.9-0.4c0.2-0.2,0.4-0.5,0.4-0.9s-0.1-0.6-0.4-0.9L25.6,23.9z
	"/>
<path d="M22.7,18.9H27c0.7,0,1.2-0.5,1.2-1.2s-0.5-1.2-1.2-1.2h-1.3l3.6-3.6c0.2-0.2,0.4-0.5,0.4-0.9c0-0.3-0.1-0.6-0.4-0.9
	c-0.5-0.5-1.3-0.5-1.7,0l-3.6,3.6v-1.3c0-0.7-0.5-1.2-1.2-1.2s-1.2,0.5-1.2,1.2v4.3C21.5,18.4,22,18.9,22.7,18.9z"/>
</svg>
