<?xml version="1.0" encoding="utf-8"?>
<!-- Generator: Adobe Illustrator 22.1.0, SVG Export Plug-In . SVG Version: 6.00 Build 0)  -->
<svg version="1.1" id="Capa_1" xmlns="http://www.w3.org/2000/svg" xmlns:xlink="http://www.w3.org/1999/xlink" x="0px" y="0px"
	 viewBox="0 0 40.5 40.4" style="enable-background:new 0 0 40.5 40.4;" xml:space="preserve">
<path d="M37.6,10.1c-5.6-9.7-17.9-13-27.6-7.4c-9.7,5.6-13,17.9-7.4,27.6c5.6,9.7,17.9,13,27.6,7.4C39.9,32.1,43.2,19.8,37.6,10.1z
	 M18.7,27.5c0,0.6-0.5,1.1-1.1,1.1s-1.1-0.5-1.1-1.1l0-1.9l-4.2,4.2c-0.2,0.2-0.5,0.3-0.8,0.3c-0.3,0-0.6-0.1-0.8-0.3
	c-0.4-0.4-0.4-1.2,0-1.6l4.2-4.2h-1.9c-0.6,0-1.1-0.5-1.1-1.1c0-0.6,0.5-1.1,1.1-1.1h4.6c0.6,0,1.1,0.5,1.1,1.1V27.5z M18.7,17.5
	c0,0.6-0.5,1.1-1.1,1.1l-4.6,0c-0.6,0-1.1-0.5-1.1-1.1c0-0.6,0.5-1.1,1.1-1.1l1.9,0l-4.2-4.2c-0.4-0.4-0.4-1.2,0-1.6
	c0.4-0.4,1.2-0.4,1.6,0l4.2,4.2v-1.9c0-0.6,0.5-1.1,1.1-1.1s1.1,0.5,1.1,1.1V17.5z M29.7,29.9c-0.2,0.2-0.5,0.3-0.8,0.3
	c-0.3,0-0.6-0.1-0.8-0.3l-4.2-4.2v1.9c0,0.6-0.5,1.1-1.1,1.1s-1.1-0.5-1.1-1.1v-4.6c0-0.6,0.5-1.1,1.1-1.1l4.6,0
	c0.6,0,1.1,0.5,1.1,1.1c0,0.6-0.5,1.1-1.1,1.1l-1.9,0l4.2,4.2c0.2,0.2,0.3,0.5,0.3,0.8C30.1,29.4,29.9,29.6,29.7,29.9z M29.7,12.2
	l-4.2,4.2h1.9c0.6,0,1.1,0.5,1.1,1.1c0,0.6-0.5,1.1-1.1,1.1h-4.6c-0.6,0-1.1-0.5-1.1-1.1v-4.6c0-0.6,0.5-1.1,1.1-1.1
	s1.1,0.5,1.1,1.1v1.9l4.2-4.2c0.4-0.4,1.2-0.4,1.6,0c0.2,0.2,0.3,0.5,0.3,0.8C30.1,11.7,29.9,11.9,29.7,12.2z"/>
</svg>
