<?xml version="1.0" encoding="utf-8"?>
<!-- Generator: Adobe Illustrator 22.1.0, SVG Export Plug-In . SVG Version: 6.00 Build 0)  -->
<svg version="1.1" id="Capa_1" xmlns="http://www.w3.org/2000/svg" xmlns:xlink="http://www.w3.org/1999/xlink" x="0px" y="0px"
	 viewBox="0 0 40.5 40.4" style="enable-background:new 0 0 40.5 40.4;" xml:space="preserve">
<style type="text/css">
	.st0{fill:#FFFFFF;}
</style>
<path class="st0" d="M37.6,10.1C32,0.4,19.7-2.9,10,2.7S-3,20.6,2.6,30.3s17.9,13,27.6,7.4S43.2,19.8,37.6,10.1z M18.7,27.5
	c0,0.6-0.5,1.1-1.1,1.1s-1.1-0.5-1.1-1.1v-1.9l-4.2,4.2c-0.2,0.2-0.5,0.3-0.8,0.3s-0.6-0.1-0.8-0.3c-0.4-0.4-0.4-1.2,0-1.6l4.2-4.2
	H13c-0.6,0-1.1-0.5-1.1-1.1s0.5-1.1,1.1-1.1h4.6c0.6,0,1.1,0.5,1.1,1.1V27.5z M18.7,17.5c0,0.6-0.5,1.1-1.1,1.1H13
	c-0.6,0-1.1-0.5-1.1-1.1s0.5-1.1,1.1-1.1h1.9l-4.2-4.2c-0.4-0.4-0.4-1.2,0-1.6c0.4-0.4,1.2-0.4,1.6,0l4.2,4.2v-1.9
	c0-0.6,0.5-1.1,1.1-1.1s1.1,0.5,1.1,1.1V17.5z M29.7,29.9c-0.2,0.2-0.5,0.3-0.8,0.3s-0.6-0.1-0.8-0.3l-4.2-4.2v1.9
	c0,0.6-0.5,1.1-1.1,1.1s-1.1-0.5-1.1-1.1V23c0-0.6,0.5-1.1,1.1-1.1h4.6c0.6,0,1.1,0.5,1.1,1.1s-0.5,1.1-1.1,1.1h-1.9l4.2,4.2
	c0.2,0.2,0.3,0.5,0.3,0.8C30.1,29.4,29.9,29.6,29.7,29.9z M29.7,12.2l-4.2,4.2h1.9c0.6,0,1.1,0.5,1.1,1.1s-0.5,1.1-1.1,1.1h-4.6
	c-0.6,0-1.1-0.5-1.1-1.1v-4.6c0-0.6,0.5-1.1,1.1-1.1s1.1,0.5,1.1,1.1v1.9l4.2-4.2c0.4-0.4,1.2-0.4,1.6,0c0.2,0.2,0.3,0.5,0.3,0.8
	C30.1,11.7,29.9,11.9,29.7,12.2z"/>
</svg>
