<?xml version="1.0" encoding="utf-8"?>
<!-- Generator: Adobe Illustrator 22.1.0, SVG Export Plug-In . SVG Version: 6.00 Build 0)  -->
<svg version="1.1" id="Capa_1" xmlns="http://www.w3.org/2000/svg" xmlns:xlink="http://www.w3.org/1999/xlink" x="0px" y="0px"
	 viewBox="0 0 62.9 62.9" xml:space="preserve">
<path class="st0" d="M0,0v62.9h62.9V0H0z M31.2,12.2c7.2,0,9.5,4.4,9.5,7.3c0,3.7-1.6,5.2-3.2,6.4c-1.6,1.2-3.4,2.2-3.7,4.5v1.4
	h-5.1v-1.7c0.2-3.3,1.8-4.8,3.3-6c1.5-1.2,2.8-2.1,2.8-4.1c0-2.3-1.2-3.4-3.2-3.4c-2.7,0-3.9,2.2-3.9,4.9h-5.6
	C22.1,16.2,25.6,12.2,31.2,12.2z M34,34.2V40h-6v-5.9H34z M49.3,50.6l-35.9,0c-1.6,0-2.9-1.3-2.9-2.9c0-1.6,1.3-3,3-3l35.9,0
	c0.8,0,1.5,0.3,2.1,0.9c0.6,0.6,0.9,1.3,0.9,2.1C52.2,49.3,50.9,50.6,49.3,50.6z"/>
</svg>
