<?xml version="1.0" encoding="utf-8"?>
<!-- Generator: Adobe Illustrator 22.0.1, SVG Export Plug-In . SVG Version: 6.00 Build 0)  -->
<svg version="1.1" id="Capa_1" xmlns="http://www.w3.org/2000/svg" xmlns:xlink="http://www.w3.org/1999/xlink" x="0px" y="0px"
	 viewBox="0 0 40.4 40.4" style="enable-background:new 0 0 40.4 40.4;" xml:space="preserve">
<path d="M16.1,14.1c-1.1,0-2,0.9-2,2v8.1c0,1.1,0.9,2,2,2c1.1,0,2-0.9,2-2v-8.1C18.2,15,17.3,14.1,16.1,14.1L16.1,14.1z M37.6,10.1
	c-5.6-9.6-17.9-13-27.6-7.4c-9.6,5.6-13,17.9-7.4,27.6c5.6,9.6,17.9,13,27.6,7.4C39.9,32.1,43.2,19.7,37.6,10.1L37.6,10.1z
	 M28.2,34.2c-7.7,4.5-17.6,1.8-22-5.9c-4.5-7.7-1.8-17.6,5.9-22c7.7-4.5,17.6-1.8,22,5.9C38.6,19.8,36,29.7,28.2,34.2L28.2,34.2z
	 M24.2,14.1c-1.1,0-2,0.9-2,2v8.1c0,1.1,0.9,2,2,2c1.1,0,2-0.9,2-2v-8.1C26.2,15,25.3,14.1,24.2,14.1L24.2,14.1z M24.2,14.1"/>
</svg>
