<?xml version="1.0" encoding="utf-8"?>
<!-- Generator: Adobe Illustrator 22.0.1, SVG Export Plug-In . SVG Version: 6.00 Build 0)  -->
<svg version="1.1" id="Capa_1" xmlns="http://www.w3.org/2000/svg" xmlns:xlink="http://www.w3.org/1999/xlink" x="0px" y="0px"
	 viewBox="0 0 40.5 40.4" style="enable-background:new 0 0 40.5 40.4;" xml:space="preserve">
<path d="M30.4,37.7c9.7-5.6,13-17.9,7.4-27.6s-17.9-13-27.6-7.4s-13,17.9-7.4,27.6S20.7,43.3,30.4,37.7L30.4,37.7z M6.3,28.3
	c-4.5-7.7-1.8-17.6,5.9-22.1s17.6-1.8,22.1,5.9s1.8,17.6-5.9,22.1C20.7,38.7,10.8,36,6.3,28.3L6.3,28.3z"/>
<path d="M29.5,22.1c1,0,1.8-0.8,1.8-1.8c0-1-0.9-1.8-1.8-1.8l-18.6,0c-1,0-1.8,0.8-1.8,1.8c0,1,0.9,1.8,1.8,1.8L29.5,22.1z"/>
<path d="M18.4,29.6c0,1,0.8,1.8,1.8,1.8c1,0,1.8-0.9,1.8-1.8L22,11c0-1-0.8-1.8-1.8-1.8c-1,0-1.8,0.9-1.8,1.8L18.4,29.6z"/>
</svg>
