<?xml version="1.0" encoding="utf-8"?>
<!-- Generator: Adobe Illustrator 22.0.1, SVG Export Plug-In . SVG Version: 6.00 Build 0)  -->
<svg version="1.1" id="Capa_1" xmlns="http://www.w3.org/2000/svg" xmlns:xlink="http://www.w3.org/1999/xlink" x="0px" y="0px"
	 viewBox="0 0 40.5 40.4" style="enable-background:new 0 0 40.5 40.4;" xml:space="preserve">
<path d="M37.6,17.4l-34.7,0c-1.6,0-2.8,1.3-2.8,2.9c0,0.8,0.3,1.5,0.8,2c0.5,0.5,1.3,0.8,2,0.8l34.7,0c1.6,0,2.8-1.3,2.9-2.9
	C40.4,18.6,39.2,17.4,37.6,17.4z"/>
<path d="M23.1,37.6l0-34.7c0-1.6-1.3-2.8-2.9-2.8c-0.8,0-1.5,0.3-2,0.8c-0.5,0.5-0.8,1.3-0.8,2l0,34.7c0,1.6,1.3,2.8,2.9,2.9
	C21.8,40.4,23.1,39.1,23.1,37.6z"/>
</svg>
