<?xml version="1.0" encoding="utf-8"?>
<!-- Generator: Adobe Illustrator 22.1.0, SVG Export Plug-In . SVG Version: 6.00 Build 0)  -->
<svg version="1.1" id="Capa_1" xmlns="http://www.w3.org/2000/svg" xmlns:xlink="http://www.w3.org/1999/xlink" x="0px" y="0px"
	 viewBox="0 0 40.5 40.4" style="enable-background:new 0 0 40.5 40.4;" xml:space="preserve">
<style type="text/css">
	.st0{fill:#FFFFFF;}
</style>
<path class="st0" d="M37.7,10.1c-5.6-9.7-17.9-13-27.6-7.4s-13,17.9-7.4,27.6s17.9,13,27.6,7.4S43.3,19.8,37.7,10.1z M30.6,16.7
	c-0.2,0.1-0.3,0.1-0.5,0.1c-0.1,0-0.3,0-0.4-0.1c-0.3-0.1-0.6-0.3-0.9-1l-0.3-0.9l-5.8,9.8l0,0c-0.4,0.9-1.4,1.3-2.3,0.9l-4.7-2.4
	l-3.1,5.8c-0.4,0.9-1.4,1.3-2.3,0.9c-0.9-0.4-1.3-1.4-0.9-2.3l3.9-7.4c0.2-0.4,0.6-0.8,1-0.9c0.4-0.2,0.9-0.2,1.3,0l5,2.4l5.2-8.7
	h-0.7c-0.8,0-1.5,0-1.8-0.7c-0.1-0.3-0.1-0.7,0.1-1s0.4-0.5,0.7-0.5c1-0.2,4-0.6,4.1-0.6c0.6-0.2,1.4,0.2,1.6,0.9l1.2,3.8
	C31.4,15.7,31.2,16.5,30.6,16.7z"/>
</svg>
