<?xml version="1.0" encoding="utf-8"?>
<!-- Generator: Adobe Illustrator 22.0.1, SVG Export Plug-In . SVG Version: 6.00 Build 0)  -->
<svg version="1.1" id="Capa_1" xmlns="http://www.w3.org/2000/svg" xmlns:xlink="http://www.w3.org/1999/xlink" x="0px" y="0px"
	 viewBox="0 0 40.5 40.4" xml:space="preserve">
<path d="M37.7,10.1c-5.6-9.7-17.9-13-27.6-7.4c-9.7,5.6-13,17.9-7.4,27.6c5.6,9.7,17.9,13,27.6,7.4C40,32.1,43.3,19.8,37.7,10.1
	L37.7,10.1z M28.3,34.2c-7.7,4.5-17.6,1.8-22.1-5.9c-4.5-7.7-1.8-17.6,5.9-22.1c7.7-4.5,17.6-1.8,22.1,5.9
	C38.7,19.9,36,29.7,28.3,34.2L28.3,34.2z M27.5,19.4"/>
<path d="M31.1,15l-1.2-3.8c-0.2-0.6-1-1.1-1.6-0.9c-0.1,0-3.1,0.4-4.1,0.6c-0.3,0.1-0.6,0.3-0.7,0.5c-0.2,0.3-0.2,0.7-0.1,1
	c0.3,0.7,1,0.7,1.8,0.7l0.7,0l-5.2,8.6l-5-2.4c-0.4-0.2-0.9-0.2-1.3,0c-0.4,0.2-0.8,0.5-1,0.9l-3.9,7.4c-0.4,0.9,0,1.9,0.9,2.3
	c0.9,0.4,1.9,0,2.3-0.9l3.1-5.8l4.7,2.4c0.9,0.4,1.9,0,2.3-0.9c0,0,0,0,0,0l5.8-9.8l0.3,0.9c0.3,0.6,0.6,0.9,0.9,1
	c0.1,0,0.3,0.1,0.4,0.1c0.2,0,0.3,0,0.5-0.1C31.2,16.5,31.4,15.7,31.1,15z"/>
</svg>
