<?xml version="1.0" encoding="utf-8"?>
<!-- Generator: Adobe Illustrator 22.0.1, SVG Export Plug-In . SVG Version: 6.00 Build 0)  -->
<svg version="1.1" id="Capa_1" xmlns="http://www.w3.org/2000/svg" xmlns:xlink="http://www.w3.org/1999/xlink" x="0px" y="0px"
	 viewBox="0 0 40.5 40.4" xml:space="preserve">
<path d="M37.7,10.1c-5.6-9.7-17.9-13-27.6-7.4c-9.7,5.6-13,17.9-7.4,27.6c5.6,9.7,17.9,13,27.6,7.4C40,32.1,43.3,19.8,37.7,10.1z
	 M15.8,27.7c-0.1,0.6-0.4,1-0.9,1.2c-0.1,0-0.3,0.1-0.4,0.1c-0.4,0-0.9-0.1-1.5-0.7c-2.3-2.1-3.7-5.1-3.7-8.2c0-5,3.5-9.4,8.4-10.6
	l0-0.8c0-0.3,0.1-0.6,0.4-0.8c0.3-0.1,0.6-0.1,0.9,0.1l4.1,2.5c0.3,0.2,0.5,0.4,0.5,0.7c0,0.3-0.2,0.6-0.5,0.7l-3.7,2.2
	c-0.2,0.1-0.4,0.2-0.7,0.2c-0.2,0-0.3,0-0.5-0.1c-0.3-0.2-0.5-0.5-0.5-1l0-0.6c-3.2,1.1-5.3,4-5.3,7.4c0,2.4,1.1,4.6,2.9,6.1
	C15.7,26.6,15.9,27.1,15.8,27.7z M22.7,30.7l0,0.7c0,0.3-0.2,0.6-0.4,0.8c-0.1,0.1-0.2,0.1-0.4,0.1c-0.2,0-0.3,0-0.5-0.1l-4-2.4
	c-0.3-0.2-0.5-0.5-0.5-0.8c0-0.3,0.2-0.6,0.5-0.8l4.1-2.5c0.3-0.2,0.6-0.2,0.9-0.1c0.3,0.1,0.4,0.4,0.4,0.8l0,1
	c3.2-1.1,5.3-4,5.3-7.4c0-2.4-1.1-4.7-3-6.2c-0.4-0.3-0.6-0.7-0.5-1.2c0.1-0.5,0.5-1,1.1-1.3c0.6-0.2,1.2-0.1,1.6,0.3
	c2.4,2.1,3.8,5.1,3.8,8.3C31.1,25.1,27.6,29.5,22.7,30.7z"/>
</svg>
