<?xml version="1.0" encoding="utf-8"?>
<!-- Generator: Adobe Illustrator 22.1.0, SVG Export Plug-In . SVG Version: 6.00 Build 0)  -->
<svg version="1.1" id="Capa_1" xmlns="http://www.w3.org/2000/svg" xmlns:xlink="http://www.w3.org/1999/xlink" x="0px" y="0px"
	 viewBox="0 0 40.5 40.4" style="enable-background:new 0 0 40.5 40.4;" xml:space="preserve">
<style type="text/css">
	.st0{fill:#FFFFFF;}
</style>
<path class="st0" d="M37.7,10.1c-5.6-9.7-17.9-13-27.6-7.4s-13,17.9-7.4,27.6s17.9,13,27.6,7.4C39.9,32.1,43.3,19.8,37.7,10.1z
	 M28.3,34.2c-7.7,4.5-17.6,1.8-22.1-5.9S4.4,10.7,12.1,6.2s17.6-1.8,22.1,5.9C38.6,19.9,36,29.7,28.3,34.2z"/>
<path class="st0" d="M12.3,20.1c0-3.4,2.2-6.3,5.3-7.4v0.6c0,0.4,0.2,0.8,0.5,1c0.1,0.1,0.3,0.1,0.5,0.1s0.4-0.1,0.7-0.2L23,12
	c0.3-0.2,0.5-0.4,0.5-0.7s-0.2-0.6-0.5-0.7L18.8,8c-0.2-0.2-0.6-0.2-0.8,0c-0.3,0.1-0.4,0.4-0.4,0.8v0.8c-4.9,1.2-8.4,5.6-8.4,10.6
	c0,3.1,1.3,6.1,3.7,8.2c0.6,0.5,1.1,0.7,1.5,0.7c0.2,0,0.3,0,0.4-0.1c0.5-0.2,0.9-0.6,0.9-1.2c0.1-0.6-0.1-1.1-0.6-1.5
	C13.3,24.7,12.3,22.5,12.3,20.1z"/>
<path class="st0" d="M31.1,20.1c0-3.2-1.4-6.2-3.8-8.3c-0.5-0.4-1-0.5-1.6-0.3s-1,0.7-1.1,1.3c-0.1,0.5,0.1,0.9,0.5,1.2
	c1.9,1.5,3,3.8,3,6.2c0,3.4-2.2,6.3-5.3,7.4v-1c0-0.3-0.1-0.6-0.4-0.8c-0.3-0.1-0.6-0.1-0.9,0.1l-4.1,2.5c-0.3,0.2-0.5,0.5-0.5,0.8
	s0.2,0.6,0.5,0.8l4,2.4c0.2,0.1,0.3,0.1,0.5,0.1c0.1,0,0.3,0,0.4-0.1c0.3-0.1,0.4-0.4,0.4-0.8v-0.7C27.6,29.5,31.1,25.1,31.1,20.1z"
	/>
</svg>
