<?xml version="1.0" encoding="utf-8"?>
<!-- Generator: Adobe Illustrator 22.0.1, SVG Export Plug-In . SVG Version: 6.00 Build 0)  -->
<svg version="1.1" id="Capa_1" xmlns="http://www.w3.org/2000/svg" xmlns:xlink="http://www.w3.org/1999/xlink" x="0px" y="0px"
	 viewBox="0 0 40.5 40.4" xml:space="preserve">
		<path d="M37.7,10.1c-5.6-9.7-17.9-13-27.6-7.4c-9.7,5.6-13,17.9-7.4,27.6c5.6,9.7,17.9,13,27.6,7.4C39.9,32.1,43.3,19.8,37.7,10.1
			z M28.3,34.2c-7.7,4.5-17.6,1.8-22.1-5.9c-4.5-7.7-1.8-17.6,5.9-22.1c7.7-4.5,17.6-1.8,22.1,5.9C38.6,19.9,36,29.7,28.3,34.2z"/>
		<path d="M12.3,20.1c0-3.4,2.2-6.3,5.3-7.4l0,0.6c0,0.4,0.2,0.8,0.5,1c0.1,0.1,0.3,0.1,0.5,0.1c0.2,0,0.4-0.1,0.7-0.2L23,12
		c0.3-0.2,0.5-0.4,0.5-0.7c0-0.3-0.2-0.6-0.5-0.7L18.8,8C18.6,7.8,18.2,7.8,18,8c-0.3,0.1-0.4,0.4-0.4,0.8l0,0.8
		c-4.9,1.2-8.4,5.6-8.4,10.6c0,3.1,1.3,6.1,3.7,8.2c0.6,0.5,1.1,0.7,1.5,0.7c0.2,0,0.3,0,0.4-0.1c0.5-0.2,0.9-0.6,0.9-1.2
		c0.1-0.6-0.1-1.1-0.6-1.5C13.3,24.7,12.3,22.5,12.3,20.1z"/>
		<path d="M31.1,20.1c0-3.2-1.4-6.2-3.8-8.3c-0.5-0.4-1-0.5-1.6-0.3c-0.6,0.2-1,0.7-1.1,1.3c-0.1,0.5,0.1,0.9,0.5,1.2
	c1.9,1.5,3,3.8,3,6.2c0,3.4-2.2,6.3-5.3,7.4l0-1c0-0.3-0.1-0.6-0.4-0.8c-0.3-0.1-0.6-0.1-0.9,0.1l-4.1,2.5c-0.3,0.2-0.5,0.5-0.5,0.8
	c0,0.3,0.2,0.6,0.5,0.8l4,2.4c0.2,0.1,0.3,0.1,0.5,0.1c0.1,0,0.3,0,0.4-0.1c0.3-0.1,0.4-0.4,0.4-0.8l0-0.7
	C27.6,29.5,31.1,25.1,31.1,20.1z"/>
</svg>
