<?xml version="1.0" encoding="utf-8"?>
<!-- Generator: Adobe Illustrator 22.1.0, SVG Export Plug-In . SVG Version: 6.00 Build 0)  -->
<svg version="1.1" id="Capa_1" xmlns="http://www.w3.org/2000/svg" xmlns:xlink="http://www.w3.org/1999/xlink" x="0px" y="0px"
	 viewBox="0 0 40.5 40.4" style="enable-background:new 0 0 40.5 40.4;" xml:space="preserve">
<style type="text/css">
	.st0{fill:#FFFFFF;}
</style>
<path class="st0" d="M2.8,10.1c-5.6,9.6-2.3,22,7.4,27.6c9.6,5.6,22,2.3,27.5-7.4c5.6-9.6,2.3-22-7.4-27.5
	C20.7-2.8,8.3,0.5,2.8,10.1L2.8,10.1z M28.3,6.2c7.7,4.5,10.4,14.3,5.9,22s-14.3,10.4-22,5.9s-10.4-14.3-5.9-22
	C10.7,4.4,20.6,1.8,28.3,6.2L28.3,6.2z"/>
<path class="st0" d="M16.3,15.9l4.3,4.3l-4.3,4.3c-0.8,0.8-0.8,2.1,0,2.9c0.8,0.8,2.1,0.8,2.9,0l5.7-5.7c0.8-0.8,0.8-2.1,0-2.9
	l-5.7-5.7c-0.8-0.8-2.1-0.8-2.9,0C15.5,13.9,15.5,15.1,16.3,15.9L16.3,15.9z"/>
</svg>
