<?xml version="1.0" encoding="utf-8"?>
<!-- Generator: Adobe Illustrator 22.1.0, SVG Export Plug-In . SVG Version: 6.00 Build 0)  -->
<svg version="1.1" id="Capa_1" xmlns="http://www.w3.org/2000/svg" xmlns:xlink="http://www.w3.org/1999/xlink" x="0px" y="0px"
	 viewBox="0 0 40.3 40.3" xml:space="preserve">
<path d="M2.7,10.1c-5.6,9.6-2.3,22,7.4,27.6c9.6,5.6,22,2.3,27.5-7.4c5.6-9.6,2.3-22-7.4-27.5C20.6-2.9,8.3,0.4,2.7,10.1z M19.1,13
	l5.7,5.7c0.8,0.8,0.8,2.1,0,2.9l-5.7,5.7c-0.8,0.8-2.1,0.8-2.9,0c-0.8-0.8-0.8-2.1,0-2.9l4.3-4.3l-4.3-4.3c-0.8-0.8-0.8-2.1,0-2.9
	C17,12.3,18.3,12.3,19.1,13z"/>
</svg>
