<?xml version="1.0" encoding="utf-8"?>
<!-- Generator: Adobe Illustrator 22.0.1, SVG Export Plug-In . SVG Version: 6.00 Build 0)  -->
<svg version="1.1" id="Capa_1" xmlns="http://www.w3.org/2000/svg" xmlns:xlink="http://www.w3.org/1999/xlink" x="0px" y="0px"
	 viewBox="0 0 40.5 40.4" style="enable-background:new 0 0 40.5 40.4;" xml:space="preserve">
<path d="M37.7,10.1c-5.6-9.7-17.9-13-27.6-7.4c-9.7,5.6-13,17.9-7.4,27.6c5.6,9.7,17.9,13,27.6,7.4C40,32.1,43.3,19.8,37.7,10.1
	L37.7,10.1z M28.3,34.2c-7.7,4.5-17.6,1.8-22.1-5.9c-4.5-7.7-1.8-17.6,5.9-22.1c7.7-4.5,17.6-1.8,22.1,5.9
	C38.7,19.9,36,29.7,28.3,34.2L28.3,34.2z M24.3,14.2"/>
<path d="M24.3,14.2h-8.1c-1.1,0-2,0.9-2,2v8.1c0,1.1,0.9,2,2,2h8.1c1.1,0,2-0.9,2-2v-8.1C26.3,15.1,25.4,14.2,24.3,14.2L24.3,14.2z"
	/>
</svg>
