<?xml version="1.0" encoding="utf-8"?>
<!-- Generator: Adobe Illustrator 22.0.1, SVG Export Plug-In . SVG Version: 6.00 Build 0)  -->
<svg version="1.1" id="Capa_1" xmlns="http://www.w3.org/2000/svg" xmlns:xlink="http://www.w3.org/1999/xlink" x="0px" y="0px"
	 viewBox="0 0 40.5 40.4" xml:space="preserve">
<path d="M39.5,0.5c-1.1-0.8-2.7-0.6-3.5,0.5L12.1,33.5L4.6,22.1C3.7,21,2.1,20.8,1,21.6c-1.1,0.8-1.4,2.4-0.5,3.5L10,39.4
	c0.5,0.6,1.2,1,1.9,1c0.1,0,0.1,0,0.2,0c0.1,0,0.1,0,0.2,0c0.1,0,0.2,0,0.2,0c0.6-0.1,1.2-0.4,1.7-1L40,4
	C40.8,2.9,40.6,1.3,39.5,0.5z"/>
</svg>
