<?xml version="1.0" encoding="utf-8"?>
<!-- Generator: Adobe Illustrator 22.1.0, SVG Export Plug-In . SVG Version: 6.00 Build 0)  -->
<svg version="1.1" id="Capa_1" xmlns="http://www.w3.org/2000/svg" xmlns:xlink="http://www.w3.org/1999/xlink" x="0px" y="0px"
	 viewBox="0 0 62.9 62.9" style="enable-background:new 0 0 62.9 62.9;" xml:space="preserve">
<style type="text/css">
	.st0{fill:#010202;}
</style>
<path class="st0" d="M0,0v62.9h62.9V0H0z M34.6,47.4h-6.9v-6.7h6.9V47.4z M38.5,31.3c-1.9,1.4-3.9,2.5-4.3,5.1v1.7h-5.9v-2
	c0.3-3.8,2.1-5.5,3.8-6.9c1.7-1.4,3.2-2.4,3.2-4.7c0-2.7-1.4-3.9-3.7-3.9c-3.2,0-4.5,2.6-4.5,5.7h-6.4c0.1-6.3,4.3-10.8,10.7-10.8
	c8.3,0,10.9,5.1,10.9,8.5C42.2,28.1,40.4,29.8,38.5,31.3z"/>
</svg>
