<?xml version="1.0" encoding="utf-8"?>
<!-- Generator: Adobe Illustrator 22.1.0, SVG Export Plug-In . SVG Version: 6.00 Build 0)  -->
<svg version="1.1" id="Capa_1" xmlns="http://www.w3.org/2000/svg" xmlns:xlink="http://www.w3.org/1999/xlink" x="0px" y="0px"
	 viewBox="0 0 40.5 40.4" style="enable-background:new 0 0 40.5 40.4;" xml:space="preserve">
<style type="text/css">
	.st0{fill:#FFFFFF;}
</style>
<path class="st0" d="M37.7,10.1c-5.6-9.6-17.9-13-27.6-7.4c-9.6,5.6-13,17.9-7.4,27.6c5.6,9.6,17.9,13,27.6,7.4S43.3,19.8,37.7,10.1
	z M30.6,15.4L18.8,27.2c-0.4,0.4-0.9,0.6-1.3,0.6c-0.5,0-1-0.2-1.3-0.6L9.9,21c-0.7-0.7-0.7-1.9,0-2.7c0.7-0.7,1.9-0.7,2.7,0
	l4.8,4.8l10.5-10.5c0.7-0.7,1.9-0.7,2.7,0C31.3,13.5,31.3,14.7,30.6,15.4z"/>
</svg>
