<?xml version="1.0" encoding="utf-8"?>
<!-- Generator: Adobe Illustrator 22.1.0, SVG Export Plug-In . SVG Version: 6.00 Build 0)  -->
<svg version="1.1" id="Capa_1" xmlns="http://www.w3.org/2000/svg" xmlns:xlink="http://www.w3.org/1999/xlink" x="0px" y="0px"
	 viewBox="0 0 138.8 31.6" style="enable-background:new 0 0 138.8 31.6;" xml:space="preserve">
<style type="text/css">
	.st0{fill:#768690;}
</style>
<g>
	<path class="st0" d="M0,0h8.3v5.9H0V0z M0,7.8h8.3V31H0V7.8z"/>
	<path class="st0" d="M22.5,15.7c0-1.8-0.6-2.3-1.6-2.3c-1.1,0-1.7,0.9-1.7,2.3V31h-8.3V7.8H19v2.7l0,0c1.2-2.3,3.4-3.3,6.1-3.3
		c3,0,5.7,1.6,5.7,5.9v18h-8.3V15.7z"/>
	<path class="st0" d="M34.4,0.9h8.3v6.8h2.9v5.4h-2.9v10.4c0,1.5,0.2,2.2,1.6,2.2c0.6,0,1,0,1.3-0.1v5.5c-0.7,0.1-2.9,0.3-4.1,0.3
		c-4.8,0-7.1-0.2-7.1-5.4V13.2h-2.5V7.8h2.5V0.9z"/>
	<path class="st0" d="M54.5,23.8c0,1.2,0.1,2.9,1.8,2.9c1.6,0,1.8-1.5,1.8-3.9h7.6c0,3.2-0.9,5.4-2.5,6.8s-4,2-6.8,2
		c-9.2,0-10.2-5.7-10.2-12.3c0-6.5,1-12.2,10.2-12.2c9.5,0,9.6,5.9,9.6,13.2v0.4H54.5V23.8z M58.1,15c0-2.3-0.5-2.9-1.8-2.9
		c-1.2,0-1.8,0.6-1.8,2.9v1.4h3.6V15z"/>
	<path class="st0" d="M67.4,7.8h8.1v3.4h0.1c0.8-2.2,2.7-4,4.9-4c0.9,0,1.2,0.1,1.4,0.1v7.6c-0.3,0-0.6-0.1-1-0.1s-0.7,0-1.6,0
		c-2.9,0-3.6,1.5-3.6,4.3v12h-8.3V7.8z"/>
	<path class="st0" d="M95,15.7c0-1.8-0.6-2.3-1.6-2.3c-1.1,0-1.7,0.9-1.7,2.3V31h-8.3V7.8h8.1v2.7h0.1c1.2-2.3,3.4-3.3,6.1-3.3
		c3,0,5.7,1.6,5.7,5.9v18H95V15.7z"/>
	<path class="st0" d="M113.4,23.8c0,1.2,0.1,2.9,1.8,2.9c1.6,0,1.8-1.5,1.8-3.9h7.6c0,3.2-0.9,5.4-2.5,6.8s-4,2-6.8,2
		C106,31.6,105,26,105,19.4c0-6.5,1-12.2,10.2-12.2c9.5,0,9.6,5.9,9.6,13.2v0.4h-11.4C113.4,20.8,113.4,23.8,113.4,23.8z M117,15
		c0-2.3-0.5-2.9-1.8-2.9c-1.2,0-1.8,0.6-1.8,2.9v1.4h3.6C117,16.4,117,15,117,15z"/>
	<path class="st0" d="M127.6,0.9h8.3v6.8h2.9v5.4h-2.9v10.4c0,1.5,0.2,2.2,1.6,2.2c0.6,0,1,0,1.3-0.1v5.5c-0.7,0.1-2.9,0.3-4.1,0.3
		c-4.8,0-7.1-0.2-7.1-5.4V13.2H125V7.8h2.5L127.6,0.9L127.6,0.9z"/>
</g>
</svg>
