<?xml version="1.0" encoding="utf-8"?>
<!-- Generator: Adobe Illustrator 22.1.0, SVG Export Plug-In . SVG Version: 6.00 Build 0)  -->
<svg version="1.1" id="Capa_1" xmlns="http://www.w3.org/2000/svg" xmlns:xlink="http://www.w3.org/1999/xlink" x="0px" y="0px"
	 viewBox="0 0 263 42.9" style="enable-background:new 0 0 263 42.9;" xml:space="preserve">
<style type="text/css">
	.st0{fill:#FFFFFF;}
	.st1{fill:#ED685D;}
</style>
<g>
	<path class="st0" d="M33.4,42.1h-9.2l-3.3-18.7h-0.1l-3.2,18.7H8.3L0,11.4h9.3l3.7,19h0.1l3.7-19h8.3l3.6,19.2h0.1l3.8-19.2H42
		L33.4,42.1z"/>
	<path class="st0" d="M58.8,10.7c9.3,0,15.6,6.7,15.6,16.1s-6.2,16.1-15.6,16.1c-9.3,0-15.6-6.7-15.6-16.1S49.5,10.7,58.8,10.7z
		 M58.8,35.2c2.4,0,6.1-1.6,6.1-8.4s-3.7-8.4-6.1-8.4s-6.1,1.6-6.1,8.4S56.4,35.2,58.8,35.2z"/>
	<path class="st0" d="M78.4,11.4h18c5.4,0,10,3,10,8.8c0,3.2-1.5,6.5-4.6,7.7c2.6,1,4.2,3.8,4.5,7.7c0.1,1.5,0.2,5.2,1,6.6h-9.5
		c-0.5-1.5-0.6-3.1-0.8-4.7c-0.3-2.9-0.5-6-4.3-6h-5v10.7h-9.5V11.4z M87.8,24.8h4.9c1.8,0,4.2-0.3,4.2-3.1c0-1.9-1.1-3.1-4.7-3.1
		h-4.4V24.8z"/>
	<path class="st0" d="M110.9,11.4h15.5c10.2,0,13.8,7.6,13.8,15.3c0,9.4-5,15.4-15.7,15.4h-13.7V11.4z M120.3,34.3h3.7
		c5.9,0,6.8-4.8,6.8-7.7c0-1.9-0.6-7.3-7.4-7.3h-3V34.3z"/>
</g>
<g>
	<path class="st1" d="M184,42.1h-12l-4.4-18.8h-0.1L163,42.1h-12l-9.6-30.6h12.2l4.5,18.9h0.1l3.9-18.9H173l4.1,18.9h0.2l4.2-18.9
		h12.2L184,42.1z"/>
	<path class="st1" d="M226.3,35.3c0,2.3,0.1,4.9,1.4,6.8h-11.9c-0.3-0.8-0.5-2.1-0.4-2.9h-0.1c-2.5,2.8-6.1,3.7-9.9,3.7
		c-5.9,0-10.8-2.8-10.8-9.3c0-9.7,11.3-9.3,17.3-10.4c1.6-0.3,3.2-0.8,3.2-2.7c0-2.1-1.9-2.8-3.8-2.8c-3.6,0-4.3,1.8-4.4,3.1h-10.9
		c0.2-4.3,2.3-6.8,5.3-8.3c2.9-1.4,6.8-1.8,10.4-1.8c14.6,0,14.5,6.1,14.5,12V35.3z M215.1,28.4c-1.4,0.7-3,1.1-4.6,1.5
		c-2.6,0.6-4,1.2-4,3.3c0,1.4,1.5,2.8,3.7,2.8c2.7,0,4.7-1.6,4.9-4.8V28.4z"/>
	<path class="st1" d="M232.7,0h11.7v42.1h-11.7V0z"/>
	<path class="st1" d="M251.3,0H263v42.1h-11.7V0z"/>
</g>
<g>
	<path class="st0" d="M33.4,42.1h-9.2l-3.3-18.7h-0.1l-3.2,18.7H8.3L0,11.4h9.3l3.7,19h0.1l3.7-19h8.3l3.6,19.2h0.1l3.8-19.2H42
		L33.4,42.1z"/>
	<path class="st0" d="M58.8,10.7c9.3,0,15.6,6.7,15.6,16.1s-6.2,16.1-15.6,16.1c-9.3,0-15.6-6.7-15.6-16.1S49.5,10.7,58.8,10.7z
		 M58.8,35.2c2.4,0,6.1-1.6,6.1-8.4s-3.7-8.4-6.1-8.4s-6.1,1.6-6.1,8.4S56.4,35.2,58.8,35.2z"/>
	<path class="st0" d="M78.4,11.4h18c5.4,0,10,3,10,8.8c0,3.2-1.5,6.5-4.6,7.7c2.6,1,4.2,3.8,4.5,7.7c0.1,1.5,0.2,5.2,1,6.6h-9.5
		c-0.5-1.5-0.6-3.1-0.8-4.7c-0.3-2.9-0.5-6-4.3-6h-5v10.7h-9.5V11.4z M87.8,24.8h4.9c1.8,0,4.2-0.3,4.2-3.1c0-1.9-1.1-3.1-4.7-3.1
		h-4.4V24.8z"/>
	<path class="st0" d="M110.9,11.4h15.5c10.2,0,13.8,7.6,13.8,15.3c0,9.4-5,15.4-15.7,15.4h-13.7V11.4z M120.3,34.3h3.7
		c5.9,0,6.8-4.8,6.8-7.7c0-1.9-0.6-7.3-7.4-7.3h-3V34.3z"/>
</g>
<g>
	<path class="st1" d="M184,42.1h-12l-4.4-18.8h-0.1L163,42.1h-12l-9.6-30.6h12.2l4.5,18.9h0.1l3.9-18.9H173l4.1,18.9h0.2l4.2-18.9
		h12.2L184,42.1z"/>
	<path class="st1" d="M226.3,35.3c0,2.3,0.1,4.9,1.4,6.8h-11.9c-0.3-0.8-0.5-2.1-0.4-2.9h-0.1c-2.5,2.8-6.1,3.7-9.9,3.7
		c-5.9,0-10.8-2.8-10.8-9.3c0-9.7,11.3-9.3,17.3-10.4c1.6-0.3,3.2-0.8,3.2-2.7c0-2.1-1.9-2.8-3.8-2.8c-3.6,0-4.3,1.8-4.4,3.1h-10.9
		c0.2-4.3,2.3-6.8,5.3-8.3c2.9-1.4,6.8-1.8,10.4-1.8c14.6,0,14.5,6.1,14.5,12V35.3z M215.1,28.4c-1.4,0.7-3,1.1-4.6,1.5
		c-2.6,0.6-4,1.2-4,3.3c0,1.4,1.5,2.8,3.7,2.8c2.7,0,4.7-1.6,4.9-4.8V28.4z"/>
	<path class="st1" d="M232.7,0h11.7v42.1h-11.7V0z"/>
	<path class="st1" d="M251.3,0H263v42.1h-11.7V0z"/>
</g>
</svg>
